<svg version="1.2" xmlns="http://www.w3.org/2000/svg" viewBox="0 0 477 132" width="477" height="132">
	<title>google-play-svg</title>
	<defs>
		<clipPath clipPathUnits="userSpaceOnUse" id="cp1">
			<path d="m212 19h4v22h-4z" />
		</clipPath>
		<clipPath clipPathUnits="userSpaceOnUse" id="cp2">
			<path d="m212.47 19.63h2.86v21.26h-2.86z" />
		</clipPath>
		<clipPath clipPathUnits="userSpaceOnUse" id="cp3">
			<path d="m34 21h47v89h-47z" />
		</clipPath>
		<clipPath clipPathUnits="userSpaceOnUse" id="cp4">
			<path d="m36.88 21.35l44.05 43.51v1.03l-44.05 43.52l-0.26-0.24c-1.04-1.08-1.64-2.76-1.64-4.94v-77.68c0-2.18 0.6-3.86 1.64-4.94z" />
		</clipPath>
		<clipPath clipPathUnits="userSpaceOnUse" id="cp5">
			<path d="m36.88 21.35l44.05 43.51v1.03l-44.05 43.52l-0.26-0.24c-1.04-1.08-1.64-2.76-1.64-4.94v-77.68c0-2.18 0.6-3.86 1.64-4.94" />
		</clipPath>
		<linearGradient id="g1" x1="81.2" y1="109.2" x2="13.7" y2="42.4" gradientUnits="userSpaceOnUse">
			<stop offset="0" stop-color="#00a0ff"/>
			<stop offset=".1" stop-color="#00a0ff"/>
			<stop offset=".1" stop-color="#00a1ff"/>
			<stop offset=".1" stop-color="#00a1ff"/>
			<stop offset=".1" stop-color="#00a2ff"/>
			<stop offset=".1" stop-color="#00a2ff"/>
			<stop offset=".1" stop-color="#00a3ff"/>
			<stop offset=".1" stop-color="#00a3ff"/>
			<stop offset=".1" stop-color="#00a4ff"/>
			<stop offset=".1" stop-color="#00a4ff"/>
			<stop offset=".1" stop-color="#00a5ff"/>
			<stop offset=".1" stop-color="#00a5ff"/>
			<stop offset=".1" stop-color="#00a6ff"/>
			<stop offset=".1" stop-color="#00a6ff"/>
			<stop offset=".1" stop-color="#00a7ff"/>
			<stop offset=".1" stop-color="#00a7ff"/>
			<stop offset=".1" stop-color="#00a8ff"/>
			<stop offset=".1" stop-color="#00a8ff"/>
			<stop offset=".1" stop-color="#00a9ff"/>
			<stop offset=".1" stop-color="#00a9ff"/>
			<stop offset=".1" stop-color="#00aaff"/>
			<stop offset=".1" stop-color="#00aaff"/>
			<stop offset=".1" stop-color="#00abff"/>
			<stop offset=".1" stop-color="#00abff"/>
			<stop offset=".2" stop-color="#00acff"/>
			<stop offset=".2" stop-color="#00acff"/>
			<stop offset=".2" stop-color="#00adff"/>
			<stop offset=".2" stop-color="#00aeff"/>
			<stop offset=".2" stop-color="#00aeff"/>
			<stop offset=".2" stop-color="#00afff"/>
			<stop offset=".2" stop-color="#00afff"/>
			<stop offset=".2" stop-color="#00b0ff"/>
			<stop offset=".2" stop-color="#00b0ff"/>
			<stop offset=".2" stop-color="#00b1ff"/>
			<stop offset=".2" stop-color="#00b1ff"/>
			<stop offset=".2" stop-color="#00b2ff"/>
			<stop offset=".2" stop-color="#00b2ff"/>
			<stop offset=".2" stop-color="#00b3ff"/>
			<stop offset=".2" stop-color="#00b3ff"/>
			<stop offset=".2" stop-color="#00b4ff"/>
			<stop offset=".2" stop-color="#00b4ff"/>
			<stop offset=".2" stop-color="#00b5ff"/>
			<stop offset=".2" stop-color="#00b5ff"/>
			<stop offset=".2" stop-color="#00b6ff"/>
			<stop offset=".2" stop-color="#00b6ff"/>
			<stop offset=".2" stop-color="#00b7ff"/>
			<stop offset=".2" stop-color="#00b7ff"/>
			<stop offset=".2" stop-color="#00b8ff"/>
			<stop offset=".2" stop-color="#00b8ff"/>
			<stop offset=".3" stop-color="#00b9ff"/>
			<stop offset=".3" stop-color="#00b9ff"/>
			<stop offset=".3" stop-color="#00baff"/>
			<stop offset=".3" stop-color="#00baff"/>
			<stop offset=".3" stop-color="#00bbff"/>
			<stop offset=".3" stop-color="#00bbff"/>
			<stop offset=".3" stop-color="#00bcff"/>
			<stop offset=".3" stop-color="#00bcff"/>
			<stop offset=".3" stop-color="#00bdff"/>
			<stop offset=".3" stop-color="#00bdff"/>
			<stop offset=".3" stop-color="#00beff"/>
			<stop offset=".3" stop-color="#00beff"/>
			<stop offset=".3" stop-color="#00bfff"/>
			<stop offset=".3" stop-color="#00c0ff"/>
			<stop offset=".3" stop-color="#00c0ff"/>
			<stop offset=".3" stop-color="#00c1ff"/>
			<stop offset=".3" stop-color="#00c2ff"/>
			<stop offset=".3" stop-color="#00c2ff"/>
			<stop offset=".4" stop-color="#00c3ff"/>
			<stop offset=".4" stop-color="#00c4ff"/>
			<stop offset=".4" stop-color="#00c4ff"/>
			<stop offset=".4" stop-color="#00c5ff"/>
			<stop offset=".4" stop-color="#00c6ff"/>
			<stop offset=".4" stop-color="#00c7ff"/>
			<stop offset=".4" stop-color="#00c7ff"/>
			<stop offset=".4" stop-color="#00c8ff"/>
			<stop offset=".4" stop-color="#00c9ff"/>
			<stop offset=".4" stop-color="#00c9ff"/>
			<stop offset=".4" stop-color="#00caff"/>
			<stop offset=".4" stop-color="#00cbff"/>
			<stop offset=".4" stop-color="#00cbff"/>
			<stop offset=".5" stop-color="#00ccff"/>
			<stop offset=".5" stop-color="#00cdff"/>
			<stop offset=".5" stop-color="#00ceff"/>
			<stop offset=".5" stop-color="#00ceff"/>
			<stop offset=".5" stop-color="#00cfff"/>
			<stop offset=".5" stop-color="#00d0ff"/>
			<stop offset=".5" stop-color="#00d0ff"/>
			<stop offset=".5" stop-color="#00d1ff"/>
			<stop offset=".5" stop-color="#00d2ff"/>
			<stop offset=".5" stop-color="#00d3ff"/>
			<stop offset=".5" stop-color="#00d3ff"/>
			<stop offset=".6" stop-color="#00d4ff"/>
			<stop offset=".6" stop-color="#00d5ff"/>
			<stop offset=".6" stop-color="#00d6ff"/>
			<stop offset=".6" stop-color="#00d7ff"/>
			<stop offset=".6" stop-color="#00d8ff"/>
			<stop offset=".6" stop-color="#00d9ff"/>
			<stop offset=".7" stop-color="#00daff"/>
			<stop offset=".7" stop-color="#00dbff"/>
			<stop offset=".7" stop-color="#00dcff"/>
			<stop offset=".7" stop-color="#00ddff"/>
			<stop offset=".7" stop-color="#00deff"/>
			<stop offset=".7" stop-color="#00dfff"/>
			<stop offset=".8" stop-color="#00dfff"/>
			<stop offset=".8" stop-color="#00e0ff"/>
			<stop offset=".8" stop-color="#00e0ff"/>
			<stop offset=".8" stop-color="#00e1ff"/>
			<stop offset=".9" stop-color="#00e1ff"/>
			<stop offset=".9" stop-color="#00e2ff"/>
			<stop offset=".9" stop-color="#00e3ff"/>
			<stop offset="1" stop-color="#00e3ff"/>
		</linearGradient>
		<clipPath clipPathUnits="userSpaceOnUse" id="cp6">
			<path d="m80 50h38v31h-38z" />
		</clipPath>
		<clipPath clipPathUnits="userSpaceOnUse" id="cp7">
			<path d="m95.61 50.35l0.33 0.19l17.38 9.78c4.97 2.77 4.97 7.34 0 10.14l-17.38 9.76l-0.35 0.18l-14.66-14.51v-1.03z" />
		</clipPath>
		<clipPath clipPathUnits="userSpaceOnUse" id="cp8">
			<path d="m95.61 50.35l0.33 0.19l17.38 9.78c4.97 2.77 4.97 7.34 0 10.14l-17.38 9.76l-0.35 0.18l-14.66-14.51v-1.03" />
		</clipPath>
		<linearGradient id="g2" x1="118.3" y1="65.4" x2="80.9" y2="65.4" gradientUnits="userSpaceOnUse">
			<stop offset="0" stop-color="#ffde00"/>
			<stop offset="0" stop-color="#ffde00"/>
			<stop offset="0" stop-color="#ffde00"/>
			<stop offset="0" stop-color="#ffdd00"/>
			<stop offset=".1" stop-color="#ffdc00"/>
			<stop offset=".1" stop-color="#ffdc00"/>
			<stop offset=".1" stop-color="#ffdb00"/>
			<stop offset=".1" stop-color="#ffdb00"/>
			<stop offset=".1" stop-color="#ffda00"/>
			<stop offset=".1" stop-color="#ffda00"/>
			<stop offset=".2" stop-color="#ffd900"/>
			<stop offset=".2" stop-color="#ffd800"/>
			<stop offset=".2" stop-color="#ffd800"/>
			<stop offset=".2" stop-color="#ffd700"/>
			<stop offset=".2" stop-color="#ffd700"/>
			<stop offset=".2" stop-color="#ffd600"/>
			<stop offset=".3" stop-color="#ffd500"/>
			<stop offset=".3" stop-color="#ffd500"/>
			<stop offset=".3" stop-color="#ffd400"/>
			<stop offset=".3" stop-color="#ffd400"/>
			<stop offset=".3" stop-color="#ffd300"/>
			<stop offset=".3" stop-color="#ffd300"/>
			<stop offset=".3" stop-color="#ffd200"/>
			<stop offset=".4" stop-color="#ffd100"/>
			<stop offset=".4" stop-color="#ffd100"/>
			<stop offset=".4" stop-color="#ffd000"/>
			<stop offset=".4" stop-color="#ffd000"/>
			<stop offset=".4" stop-color="#ffcf00"/>
			<stop offset=".4" stop-color="#ffcf00"/>
			<stop offset=".5" stop-color="#ffce00"/>
			<stop offset=".5" stop-color="#ffcd00"/>
			<stop offset=".5" stop-color="#ffcd00"/>
			<stop offset=".5" stop-color="#ffcc00"/>
			<stop offset=".5" stop-color="#ffcc00"/>
			<stop offset=".5" stop-color="#ffcb00"/>
			<stop offset=".5" stop-color="#ffca00"/>
			<stop offset=".6" stop-color="#ffca00"/>
			<stop offset=".6" stop-color="#ffc900"/>
			<stop offset=".6" stop-color="#ffc900"/>
			<stop offset=".6" stop-color="#ffc800"/>
			<stop offset=".6" stop-color="#ffc800"/>
			<stop offset=".6" stop-color="#ffc700"/>
			<stop offset=".7" stop-color="#ffc600"/>
			<stop offset=".7" stop-color="#ffc600"/>
			<stop offset=".7" stop-color="#ffc500"/>
			<stop offset=".7" stop-color="#ffc500"/>
			<stop offset=".7" stop-color="#ffc400"/>
			<stop offset=".7" stop-color="#ffc300"/>
			<stop offset=".8" stop-color="#ffc300"/>
			<stop offset=".8" stop-color="#ffc200"/>
			<stop offset=".8" stop-color="#ffc200"/>
			<stop offset=".8" stop-color="#ffc100"/>
			<stop offset=".8" stop-color="#ffc100"/>
			<stop offset=".8" stop-color="#ffc000"/>
			<stop offset=".8" stop-color="#ffbf00"/>
			<stop offset=".9" stop-color="#ffbf00"/>
			<stop offset=".9" stop-color="#ffbe00"/>
			<stop offset=".9" stop-color="#ffbe00"/>
			<stop offset=".9" stop-color="#ffbd00"/>
			<stop offset=".9" stop-color="#ffbc00"/>
			<stop offset="1" stop-color="#ffbb00"/>
			<stop offset="1" stop-color="#ffbb00"/>
		</linearGradient>
		<clipPath clipPathUnits="userSpaceOnUse" id="cp9">
			<path d="m36 65h60v46h-60z" />
		</clipPath>
		<clipPath clipPathUnits="userSpaceOnUse" id="cp10">
			<path d="m80.93 65.38l15.01 14.84l-51.92 29.16c-3.06 1.71-5.75 1.5-7.4-0.21z" />
		</clipPath>
		<clipPath clipPathUnits="userSpaceOnUse" id="cp11">
			<path d="m80.93 65.38l15.01 14.84l-51.92 29.16c-3.06 1.71-5.75 1.5-7.4-0.21" />
		</clipPath>
		<linearGradient id="g3" x1="89.4" y1="117.5" x2="36.6" y2="65.4" gradientUnits="userSpaceOnUse">
			<stop offset="0" stop-color="#ff3a44"/>
			<stop offset=".5" stop-color="#ff3a44"/>
			<stop offset=".6" stop-color="#ff3a44"/>
			<stop offset=".6" stop-color="#ff3a44"/>
			<stop offset=".6" stop-color="#ff3a44"/>
			<stop offset=".6" stop-color="#fe3944"/>
			<stop offset=".6" stop-color="#fd3945"/>
			<stop offset=".7" stop-color="#fd3945"/>
			<stop offset=".7" stop-color="#fc3845"/>
			<stop offset=".7" stop-color="#fc3846"/>
			<stop offset=".7" stop-color="#fb3746"/>
			<stop offset=".7" stop-color="#fa3746"/>
			<stop offset=".7" stop-color="#fa3647"/>
			<stop offset=".8" stop-color="#f93647"/>
			<stop offset=".8" stop-color="#f93647"/>
			<stop offset=".8" stop-color="#f83548"/>
			<stop offset=".8" stop-color="#f73548"/>
			<stop offset=".8" stop-color="#f73448"/>
			<stop offset=".8" stop-color="#f63448"/>
			<stop offset=".8" stop-color="#f53349"/>
			<stop offset=".9" stop-color="#f53349"/>
			<stop offset=".9" stop-color="#f43349"/>
			<stop offset=".9" stop-color="#f4324a"/>
			<stop offset=".9" stop-color="#f3324a"/>
			<stop offset=".9" stop-color="#f2314a"/>
			<stop offset=".9" stop-color="#f2314b"/>
			<stop offset="1" stop-color="#f1314b"/>
			<stop offset="1" stop-color="#f1304b"/>
			<stop offset="1" stop-color="#f0304c"/>
			<stop offset="1" stop-color="#ef2f4c"/>
		</linearGradient>
		<clipPath clipPathUnits="userSpaceOnUse" id="cp12">
			<path d="m36 20h60v46h-60z" />
		</clipPath>
		<clipPath clipPathUnits="userSpaceOnUse" id="cp13">
			<path d="m40.03 20.21c1.2 0 2.56 0.38 3.99 1.17l51.92 29.16l-15.01 14.84l-44.31-43.77c0.88-0.91 2.05-1.4 3.41-1.4z" />
		</clipPath>
		<clipPath clipPathUnits="userSpaceOnUse" id="cp14">
			<path d="m40.03 20.21c1.2 0 2.56 0.38 3.99 1.17l51.92 29.16l-15.01 14.84l-44.31-43.77c0.88-0.91 2.05-1.4 3.41-1.4z" />
		</clipPath>
		<clipPath clipPathUnits="userSpaceOnUse" id="cp15">
			<path d="" />
		</clipPath>
		<clipPath clipPathUnits="userSpaceOnUse" id="cp16">
			<path d="m-36-40h551v211h-551z" />
		</clipPath>
		<clipPath clipPathUnits="userSpaceOnUse" id="cp17">
			<path d="m-36-40h550.87v210.76h-550.87z" />
		</clipPath>
		<clipPath clipPathUnits="userSpaceOnUse" id="cp18">
			<path d="" />
		</clipPath>
		<clipPath clipPathUnits="userSpaceOnUse" id="cp19">
			<path d="m-36-40h551v211h-551z" />
		</clipPath>
		<clipPath clipPathUnits="userSpaceOnUse" id="cp20">
			<path d="m-36-40h550.87v210.76h-550.87z" />
		</clipPath>
		<clipPath clipPathUnits="userSpaceOnUse" id="cp21">
			<path d="" />
		</clipPath>
		<clipPath clipPathUnits="userSpaceOnUse" id="cp22">
			<path d="m-36-40h551v211h-551z" />
		</clipPath>
		<clipPath clipPathUnits="userSpaceOnUse" id="cp23">
			<path d="m-36-40h550.87v210.76h-550.87z" />
		</clipPath>
	</defs>
	<style>
		.s0 { fill: #000000 } 
		.s1 { fill: #a6a6a6 } 
		.s2 { fill: #ffffff } 
		.s3 { fill: none;stroke: #ffffff;stroke-width: .2 } 
		.s4 { fill: #ffffff;stroke: #ffffff;stroke-width: .2 } 
		.s5 { fill: url(#g1) } 
		.s6 { fill: url(#g2) } 
		.s7 { fill: url(#g3) } 
		.s8 { fill: #00f076 } 
		.s9 { fill: #ff0000 } 
	</style>
	<g id="surface1">
		<path id="Layer" class="s0" d="m461.6 135.6h-444.3c-9.8 0-17.8-7.9-17.8-17.5v-105.4c0-9.7 8-17.6 17.8-17.6h444.3c9.7 0 17.7 7.9 17.7 17.6v105.4c0 9.6-8 17.5-17.7 17.5z" />
		<path id="Layer" fill-rule="evenodd" class="s1" d="m479.3 12.7v105.4c0 9.6-8 17.5-17.7 17.5h-444.3c-9.8 0-17.8-7.9-17.8-17.5v-105.4c0-9.7 8-17.6 17.8-17.6h444.3c9.7 0 17.7 7.9 17.7 17.6zm-462-14.8c-8.2 0-14.9 6.7-14.9 14.8v105.4c0 8.1 6.7 14.7 14.9 14.7h444.3c8.2 0 14.9-6.6 14.9-14.7v-105.4c0-8.1-6.7-14.8-14.9-14.8z" />
		<path id="Layer" class="s2" d="m168.1 31.1q0 4.4-2.7 7q-3 3.2-7.8 3.2q-4.6 0-7.9-3.2q-3.2-3.2-3.2-7.8q0-4.7 3.2-7.9q3.3-3.2 7.9-3.2q2.3 0 4.4 0.9q2 0.9 3.3 2.4l-1.9 1.8q-2.1-2.5-5.8-2.5q-3.4 0-5.9 2.4q-2.4 2.3-2.4 6.1q0 3.7 2.4 6q2.5 2.4 5.9 2.4q3.6 0 5.9-2.4q1.6-1.5 1.8-4.2h-7.7v-2.6h10.3q0.2 0.8 0.2 1.6z" />
		<path id="Layer" class="s3" d="m168.1 31.1q0 4.4-2.7 7q-3 3.2-7.8 3.2q-4.6 0-7.9-3.2q-3.2-3.2-3.2-7.8q0-4.7 3.2-7.9q3.3-3.2 7.9-3.2q2.3 0 4.4 0.9q2 0.9 3.3 2.4l-1.9 1.8q-2.1-2.5-5.8-2.5q-3.4 0-5.9 2.4q-2.4 2.3-2.4 6.1q0 3.7 2.4 6q2.5 2.4 5.9 2.4q3.6 0 5.9-2.4q1.6-1.5 1.8-4.2h-7.7v-2.6h10.3q0.2 0.8 0.2 1.6z" />
		<path id="Layer" class="s2" d="m184.4 22.3h-9.7v6.7h8.8v2.5h-8.8v6.7h9.7v2.6h-12.4v-21.1h12.4" />
		<path id="Layer" class="s3" d="m184.4 22.3h-9.7v6.7h8.8v2.5h-8.8v6.7h9.7v2.6h-12.4v-21.1h12.4z" />
		<path id="Layer" class="s2" d="m196 40.8h-2.7v-18.5h-6v-2.6h14.7v2.6h-6" />
		<path id="Layer" class="s3" d="m196 40.8h-2.7v-18.5h-6v-2.6h14.7v2.6h-6z" />
		<g id="Clip-Path: surface9" clip-path="url(#cp1)">
			<g id="surface9">
				<g id="Clip-Path" clip-path="url(#cp2)">
					<g id="Layer">
						<path id="Layer" class="s4" d="m212.6 19.7h2.7v21.1h-2.7z" />
					</g>
				</g>
			</g>
		</g>
		<path id="Layer" class="s2" d="m227.4 40.8h-2.7v-18.5h-6v-2.6h14.7v2.6h-6" />
		<path id="Layer" class="s3" d="m227.4 40.8h-2.7v-18.5h-6v-2.6h14.7v2.6h-6z" />
		<path id="Layer" fill-rule="evenodd" class="s2" d="m261.1 38.1q-3.1 3.2-7.8 3.2q-4.6 0-7.8-3.2q-3.1-3.2-3.1-7.8q0-4.7 3.1-7.9q3.2-3.2 7.8-3.2q4.7 0 7.8 3.2q3.2 3.3 3.2 7.9q0 4.6-3.2 7.8zm-13.6-1.8q2.4 2.4 5.8 2.4q3.5 0 5.8-2.4q2.4-2.4 2.4-6q0-3.7-2.4-6.1q-2.3-2.4-5.8-2.4q-3.4 0-5.8 2.4q-2.3 2.4-2.3 6.1q0 3.6 2.3 6z" />
		<path id="Layer" class="s3" d="m261.1 38.1q-3.1 3.2-7.8 3.2q-4.6 0-7.8-3.2q-3.1-3.2-3.1-7.8q0-4.7 3.1-7.9q3.2-3.2 7.8-3.2q4.7 0 7.8 3.2q3.2 3.3 3.2 7.9q0 4.6-3.2 7.8zm-15.9-7.8q0-3.7 2.3-6.1q2.4-2.4 5.8-2.4q3.5 0 5.8 2.4q2.4 2.4 2.4 6.1q0 3.6-2.4 6q-2.3 2.4-5.8 2.4q-3.4 0-5.8-2.4q-2.3-2.4-2.3-6z" />
		<path id="Layer" class="s2" d="m268.1 40.8v-21.1h3.4l10.3 16.4h0.1l-0.1-4v-12.4h2.8v21.1h-2.9l-10.8-17.2h-0.2l0.2 4.1v13.1" />
		<path id="Layer" class="s3" d="m268.1 40.8v-21.1h3.4l10.3 16.4h0.1l-0.1-4v-12.4h2.8v21.1h-2.9l-10.8-17.2h-0.2l0.2 4.1v13.1z" />
		<path id="Layer" fill-rule="evenodd" class="s2" d="m379.6 56.6h6.6v43.9h-6.6zm67.1 15.8l-18.2 41.4h-7l6.8-14.8l-11.8-26.6h7.1l7.9 19.1h0.2l7.6-19.1zm-30.7 11.2v16.8h-6.4v-3.3h-0.2c-1.5 2.3-4 4.3-8.5 4.3c-5.8 0-11-3.8-11-9.7c0-6.5 6.5-9.9 12.8-9.9c3.2 0 5.7 1 6.9 1.7v-0.5c0-3.6-3.5-5.6-7-5.6c-2.4 0-4.7 0.8-6 3.2l-5.9-2.4c2.1-4.6 7-6.7 11.8-6.7c7.6 0 13.5 4.3 13.5 12.1zm-6.4 5c-1.7-0.9-3.1-1.5-6-1.5c-3.3 0-7.1 1.3-7.1 4.7c0 2.7 3.1 3.7 5.2 3.7c3.9 0 7.4-2.9 7.9-6.9zm-33.6-18.4c0 8.4-7.3 13.7-14.6 13.7h-9.3v16.6h-6.6v-43.9h15.9c7.3 0 14.6 5.3 14.6 13.6zm-6.7 0c0-3.4-2.8-7.5-7.7-7.5h-9.5v15.1h9.5c4.9 0 7.7-4.2 7.7-7.6zm-87 2.3h6.3v26.8c0 11-6.5 15.5-14.3 15.5c-7.3 0-11.8-4.8-13.4-8.8l5.8-2.4c1 2.5 3.5 5.4 7.6 5.4c5 0 8-3.1 8-8.8v-2.2h-0.2c-1.5 1.8-4.3 3.4-7.9 3.4c-7.6 0-14.5-6.5-14.5-14.9c0-8.4 6.9-15 14.5-15c3.6 0 6.4 1.6 7.9 3.4h0.2zm0.5 14.1c0-5.3-3.5-9.2-8.1-9.2c-4.5 0-8.4 3.9-8.4 9.2c0 5.2 3.9 9 8.4 9c4.6 0 8.1-3.8 8.1-9zm10.4-30h6.7v43.9h-6.7zm37.8 26.2l-20.2 8.2c1.5 3 3.9 4.6 7.3 4.6c3.4 0 5.7-1.7 7.4-4.2l5.2 3.4c-1.7 2.5-5.7 6.7-12.6 6.7c-8.6 0-15-6.6-15-15c0-8.9 6.4-14.9 14.2-14.9c7.9 0 11.7 6.1 13 9.5c0 0 0.7 1.7 0.7 1.7zm-7.8-2.3c-0.8-1.9-3-3.2-5.6-3.2c-3.4 0-8.1 3-7.9 8.8zm-132.4-4.4c0.2 1.1 0.4 2.5 0.4 4c0 4.7-1.4 10.6-5.6 14.8c-4.1 4.2-9.4 6.5-16.4 6.5c-12.9 0-23.8-10.4-23.8-23.2c0-12.8 10.9-23.2 23.8-23.2c7.2 0 12.3 2.8 16.1 6.4l-4.5 4.5c-2.7-2.6-6.5-4.6-11.6-4.6c-9.4 0-16.8 7.6-16.8 16.9c0 9.3 7.4 16.9 16.8 16.9c6.2 0 9.6-2.5 11.9-4.7c1.8-1.8 3-4.4 3.5-8h-15.4v-6.3zm33 10.4c0 8.6-6.8 14.9-15.2 14.9c-8.3 0-15.1-6.3-15.1-14.9c0-8.7 6.8-15 15.1-15c8.4 0 15.2 6.3 15.2 15zm-6.7 0c0-5.4-3.9-9.1-8.5-9.1c-4.6 0-8.5 3.7-8.5 9.1c0 5.3 3.9 9 8.5 9c4.6 0 8.5-3.7 8.5-9zm39.8 0c0 8.6-6.8 14.9-15.2 14.9c-8.3 0-15.2-6.3-15.2-14.9c0-8.7 6.9-15 15.2-15c8.4 0 15.2 6.3 15.2 15zm-6.6 0c0-5.4-4-9.1-8.6-9.1c-4.6 0-8.5 3.7-8.5 9.1c0 5.3 3.9 9 8.5 9c4.6 0 8.6-3.7 8.6-9z" />
		<g id="Clip-Path" clip-path="url(#cp3)">
			<g id="Layer">
				<g id="Clip-Path" clip-path="url(#cp4)">
					<g id="Layer">
						<g id="Clip-Path" clip-path="url(#cp5)">
							<g id="Layer">
								<path id="Layer" class="s5" d="m125.5 65.4l-67.5 66.7l-67.6-66.7l67.6-66.8z" />
							</g>
						</g>
					</g>
				</g>
			</g>
		</g>
		<g id="Clip-Path" clip-path="url(#cp6)">
			<g id="Layer">
				<g id="Clip-Path" clip-path="url(#cp7)">
					<g id="Layer">
						<g id="Clip-Path" clip-path="url(#cp8)">
							<g id="Layer">
								<path id="Layer" class="s6" d="m118.3 50.4v30h-37.4v-30z" />
							</g>
						</g>
					</g>
				</g>
			</g>
		</g>
		<g id="Clip-Path" clip-path="url(#cp9)">
			<g id="Layer">
				<g id="Clip-Path" clip-path="url(#cp10)">
					<g id="Layer">
						<g id="Clip-Path" clip-path="url(#cp11)">
							<g id="Layer">
								<path id="Layer" class="s7" d="m119.1 88.2l-52.8 52.2l-52.8-52.2l52.8-52.1z" />
							</g>
						</g>
					</g>
				</g>
			</g>
		</g>
		<g id="Clip-Path" clip-path="url(#cp12)">
			<g id="Layer">
				<g id="Clip-Path" clip-path="url(#cp13)">
					<g id="Layer">
						<g id="Clip-Path" clip-path="url(#cp14)">
							<g id="Layer">
								<path id="Layer" class="s8" d="m66.3 94.7l-52.5-51.9l52.5-51.9l52.5 51.9z" />
							</g>
						</g>
					</g>
				</g>
			</g>
		</g>
		<g id="Clip-Path" clip-path="url(#cp15)">
			<g id="Clip-Path: surface27" clip-path="url(#cp16)">
				<g id="surface27">
					<g id="Clip-Path" clip-path="url(#cp17)">
						<g id="Layer">
							<path id="Layer" class="s9" d="m-36-40h550.9v210.8h-550.9z" />
						</g>
					</g>
				</g>
			</g>
		</g>
		<g id="Clip-Path" clip-path="url(#cp18)">
			<g id="Clip-Path: surface45" clip-path="url(#cp19)">
				<g id="surface45">
					<g id="Clip-Path" clip-path="url(#cp20)">
						<g id="Layer">
							<path id="Layer" class="s9" d="m-36-40h550.9v210.8h-550.9z" />
						</g>
					</g>
				</g>
			</g>
		</g>
		<g id="Clip-Path" clip-path="url(#cp21)">
			<g id="Clip-Path: surface63" clip-path="url(#cp22)">
				<g id="surface63">
					<g id="Clip-Path" clip-path="url(#cp23)">
						<g id="Layer">
							<path id="Layer" class="s9" d="m-36-40h550.9v210.8h-550.9z" />
						</g>
					</g>
				</g>
			</g>
		</g>
	</g>
</svg>